<?xml version="1.0" encoding="UTF-8"?>
<svg xmlns="http://www.w3.org/2000/svg" width="760" height="300" viewBox="0 0 760 300">
  <defs>
    <linearGradient id="bg9" x1="0" y1="0" x2="0" y2="1">
      <stop offset="0%" stop-color="#0d1b2a"/>
      <stop offset="100%" stop-color="#1b2d45"/>
    </linearGradient>
    <marker id="axR" markerWidth="7" markerHeight="5" refX="7" refY="2.5" orient="auto">
      <polygon points="0 0,7 2.5,0 5" style="fill:#e07830"/>
    </marker>
    <marker id="axB" markerWidth="7" markerHeight="5" refX="7" refY="2.5" orient="auto">
      <polygon points="0 0,7 2.5,0 5" style="fill:#3a7ab8"/>
    </marker>
  </defs>
  <rect width="760" height="300" style="fill:url(#bg9)"/>
  <text x="280" y="22" style="font-family:Arial,sans-serif;font-size:15px;fill:#e0e6ed;text-anchor:middle;font-weight:bold">DH Reference Frames on Robot Arm</text>
  <!-- Base -->
  <rect x="60" y="250" width="80" height="20" rx="3" style="fill:#2d3748;stroke:#3a7ab8;stroke-width:1"/>
  <text x="100" y="264" style="font-family:Arial,sans-serif;font-size:9px;fill:#8899aa;text-anchor:middle">Base</text>
  <!-- Link 1 (vertical) -->
  <rect x="92" y="170" width="16" height="80" rx="2" style="fill:#1b2d45;stroke:#3a7ab8;stroke-width:1"/>
  <!-- J1 -->
  <circle cx="100" cy="250" r="7" style="fill:#0d7377;stroke:#0d7377;stroke-width:1"/>
  <text x="78" y="245" style="font-family:Arial,sans-serif;font-size:10px;fill:#0d7377;font-weight:bold">J1</text>
  <!-- Frame at J1 -->
  <line x1="100" y1="250" x2="130" y2="250" style="stroke:#e07830;stroke-width:1.3" marker-end="url(#axR)"/>
  <line x1="100" y1="250" x2="100" y2="225" style="stroke:#3a7ab8;stroke-width:1.3" marker-end="url(#axB)"/>
  <text x="134" y="254" style="font-family:Arial,sans-serif;font-size:8px;fill:#e07830">x&#x2081;</text>
  <text x="102" y="222" style="font-family:Arial,sans-serif;font-size:8px;fill:#3a7ab8">z&#x2081;</text>
  <!-- J2 -->
  <circle cx="100" cy="170" r="7" style="fill:#0d7377;stroke:#0d7377;stroke-width:1"/>
  <text x="78" y="165" style="font-family:Arial,sans-serif;font-size:10px;fill:#0d7377;font-weight:bold">J2</text>
  <line x1="100" y1="170" x2="130" y2="170" style="stroke:#e07830;stroke-width:1.3" marker-end="url(#axR)"/>
  <line x1="100" y1="170" x2="100" y2="145" style="stroke:#3a7ab8;stroke-width:1.3" marker-end="url(#axB)"/>
  <text x="134" y="174" style="font-family:Arial,sans-serif;font-size:8px;fill:#e07830">x&#x2082;</text>
  <text x="102" y="142" style="font-family:Arial,sans-serif;font-size:8px;fill:#3a7ab8">z&#x2082;</text>
  <!-- Link 2 (horizontal) -->
  <rect x="108" y="162" width="90" height="16" rx="2" style="fill:#1b2d45;stroke:#3a7ab8;stroke-width:1"/>
  <!-- J3 -->
  <circle cx="198" cy="170" r="7" style="fill:#0d7377;stroke:#0d7377;stroke-width:1"/>
  <text x="205" y="160" style="font-family:Arial,sans-serif;font-size:10px;fill:#0d7377;font-weight:bold">J3</text>
  <line x1="198" y1="170" x2="228" y2="170" style="stroke:#e07830;stroke-width:1.3" marker-end="url(#axR)"/>
  <line x1="198" y1="170" x2="198" y2="145" style="stroke:#3a7ab8;stroke-width:1.3" marker-end="url(#axB)"/>
  <text x="232" y="174" style="font-family:Arial,sans-serif;font-size:8px;fill:#e07830">x&#x2083;</text>
  <text x="200" y="142" style="font-family:Arial,sans-serif;font-size:8px;fill:#3a7ab8">z&#x2083;</text>
  <!-- Link 3 (angled up-right) -->
  <line x1="198" y1="170" x2="280" y2="120" style="stroke:#3a7ab8;stroke-width:8;stroke-linecap:round;stroke-opacity:0.3"/>
  <line x1="198" y1="170" x2="280" y2="120" style="stroke:#1b2d45;stroke-width:5;stroke-linecap:round"/>
  <!-- J4 -->
  <circle cx="280" cy="120" r="7" style="fill:#0d7377;stroke:#0d7377;stroke-width:1"/>
  <text x="287" y="112" style="font-family:Arial,sans-serif;font-size:10px;fill:#0d7377;font-weight:bold">J4</text>
  <line x1="280" y1="120" x2="310" y2="120" style="stroke:#e07830;stroke-width:1.3" marker-end="url(#axR)"/>
  <line x1="280" y1="120" x2="280" y2="95" style="stroke:#3a7ab8;stroke-width:1.3" marker-end="url(#axB)"/>
  <text x="314" y="124" style="font-family:Arial,sans-serif;font-size:8px;fill:#e07830">x&#x2084;</text>
  <text x="282" y="92" style="font-family:Arial,sans-serif;font-size:8px;fill:#3a7ab8">z&#x2084;</text>
  <!-- Link 4 (short horizontal) -->
  <rect x="288" y="112" width="60" height="16" rx="2" style="fill:#1b2d45;stroke:#3a7ab8;stroke-width:1"/>
  <!-- J5 / end effector -->
  <circle cx="348" cy="120" r="7" style="fill:#e07830;stroke:#e07830;stroke-width:1"/>
  <text x="355" y="112" style="font-family:Arial,sans-serif;font-size:10px;fill:#e07830;font-weight:bold">J5</text>
  <line x1="348" y1="120" x2="378" y2="120" style="stroke:#e07830;stroke-width:1.3" marker-end="url(#axR)"/>
  <line x1="348" y1="120" x2="348" y2="95" style="stroke:#3a7ab8;stroke-width:1.3" marker-end="url(#axB)"/>
  <text x="382" y="124" style="font-family:Arial,sans-serif;font-size:8px;fill:#e07830">x&#x2085;</text>
  <text x="350" y="92" style="font-family:Arial,sans-serif;font-size:8px;fill:#3a7ab8">z&#x2085;</text>
  <!-- Gripper -->
  <line x1="348" y1="113" x2="365" y2="100" style="stroke:#e07830;stroke-width:1.5"/>
  <line x1="348" y1="127" x2="365" y2="140" style="stroke:#e07830;stroke-width:1.5"/>
  <!-- DH Table -->
  <rect x="460" y="42" width="280" height="138" rx="6" style="fill:#0d1b2a;fill-opacity:0.9;stroke:#3a7ab8;stroke-width:0.8"/>
  <text x="600" y="62" style="font-family:Arial,sans-serif;font-size:12px;fill:#e0e6ed;text-anchor:middle;font-weight:bold">DH Parameters (sample)</text>
  <!-- Table header -->
  <text x="485" y="82" style="font-family:Arial,sans-serif;font-size:10px;fill:#3a7ab8;font-weight:bold">Joint</text>
  <text x="535" y="82" style="font-family:Arial,sans-serif;font-size:10px;fill:#3a7ab8;font-weight:bold">d (mm)</text>
  <text x="600" y="82" style="font-family:Arial,sans-serif;font-size:10px;fill:#3a7ab8;font-weight:bold">a (mm)</text>
  <text x="665" y="82" style="font-family:Arial,sans-serif;font-size:10px;fill:#3a7ab8;font-weight:bold">&#x3B1; (&#x00B0;)</text>
  <line x1="475" y1="87" x2="725" y2="87" style="stroke:#3a7ab8;stroke-width:0.4"/>
  <!-- Row 1 -->
  <text x="490" y="102" style="font-family:Arial,sans-serif;font-size:10px;fill:#c8d6e5">J1</text>
  <text x="548" y="102" style="font-family:Arial,sans-serif;font-size:10px;fill:#8899aa">80</text>
  <text x="610" y="102" style="font-family:Arial,sans-serif;font-size:10px;fill:#8899aa">0</text>
  <text x="675" y="102" style="font-family:Arial,sans-serif;font-size:10px;fill:#8899aa">90</text>
  <!-- Row 2 -->
  <text x="490" y="120" style="font-family:Arial,sans-serif;font-size:10px;fill:#c8d6e5">J2</text>
  <text x="548" y="120" style="font-family:Arial,sans-serif;font-size:10px;fill:#8899aa">0</text>
  <text x="610" y="120" style="font-family:Arial,sans-serif;font-size:10px;fill:#8899aa">105</text>
  <text x="675" y="120" style="font-family:Arial,sans-serif;font-size:10px;fill:#8899aa">0</text>
  <!-- Row 3 -->
  <text x="490" y="138" style="font-family:Arial,sans-serif;font-size:10px;fill:#c8d6e5">J3</text>
  <text x="548" y="138" style="font-family:Arial,sans-serif;font-size:10px;fill:#8899aa">0</text>
  <text x="610" y="138" style="font-family:Arial,sans-serif;font-size:10px;fill:#8899aa">95</text>
  <text x="675" y="138" style="font-family:Arial,sans-serif;font-size:10px;fill:#8899aa">0</text>
  <text x="600" y="170" style="font-family:Arial,sans-serif;font-size:9px;fill:#8899aa;text-anchor:middle;font-style:italic">&#x2026; (J4, J5 omitted for brevity)</text>
  <!-- Legend -->
  <line x1="470" y1="210" x2="495" y2="210" style="stroke:#e07830;stroke-width:1.5"/>
  <text x="502" y="214" style="font-family:Arial,sans-serif;font-size:10px;fill:#c8d6e5">x-axis (red-orange)</text>
  <line x1="470" y1="228" x2="495" y2="228" style="stroke:#3a7ab8;stroke-width:1.5"/>
  <text x="502" y="232" style="font-family:Arial,sans-serif;font-size:10px;fill:#c8d6e5">z-axis (blue)</text>
  <circle cx="482" cy="246" r="5" style="fill:#0d7377"/>
  <text x="502" y="250" style="font-family:Arial,sans-serif;font-size:10px;fill:#c8d6e5">Joint (revolute)</text>
</svg>
