<svg xmlns="http://www.w3.org/2000/svg" viewBox="0 0 800 500" font-family="Segoe UI, sans-serif">
  <defs>
    <linearGradient id="grad1" x1="0%" y1="0%" x2="100%" y2="100%">
      <stop offset="0%" style="stop-color:#1a1a2e;stop-opacity:1"/>
      <stop offset="100%" style="stop-color:#16213e;stop-opacity:1"/>
    </linearGradient>
  </defs>

  <!-- Background -->
  <rect width="800" height="500" fill="url(#grad1)" rx="10"/>

  <!-- Title -->
  <text x="400" y="35" fill="#e94560" font-size="18" font-weight="bold" text-anchor="middle">FASL 3D Distance Profiler -- Architecture</text>

  <!-- Browser Layer -->
  <rect x="50" y="60" width="700" height="120" fill="none" stroke="#4ecdc4" stroke-width="2" rx="8" stroke-dasharray="6,3"/>
  <text x="70" y="80" fill="#4ecdc4" font-size="13" font-weight="bold">Browser (localhost:8009)</text>

  <rect x="70" y="90" width="180" height="75" fill="#0f3460" stroke="#aab" rx="5"/>
  <text x="160" y="115" fill="#eee" font-size="12" text-anchor="middle">2D Canvas</text>
  <text x="160" y="135" fill="#aab" font-size="10" text-anchor="middle">RGB | Depth | Normals</text>
  <text x="160" y="152" fill="#aab" font-size="10" text-anchor="middle">Profile Chart</text>

  <rect x="270" y="90" width="200" height="75" fill="#0f3460" stroke="#aab" rx="5"/>
  <text x="370" y="115" fill="#eee" font-size="12" text-anchor="middle">Three.js 3D Viewer</text>
  <text x="370" y="135" fill="#aab" font-size="10" text-anchor="middle">Surface Mesh</text>
  <text x="370" y="152" fill="#aab" font-size="10" text-anchor="middle">OrbitControls</text>

  <rect x="490" y="90" width="240" height="75" fill="#0f3460" stroke="#aab" rx="5"/>
  <text x="610" y="115" fill="#eee" font-size="12" text-anchor="middle">Controls Panel</text>
  <text x="610" y="135" fill="#aab" font-size="10" text-anchor="middle">Scene | Filter | Display</text>
  <text x="610" y="152" fill="#aab" font-size="10" text-anchor="middle">Upload | Metrics</text>

  <!-- Arrow -->
  <line x1="400" y1="185" x2="400" y2="220" stroke="#e94560" stroke-width="2" marker-end="url(#arrowhead)"/>
  <text x="420" y="210" fill="#aab" font-size="10">REST API (JSON)</text>

  <!-- API Layer -->
  <rect x="150" y="225" width="500" height="60" fill="#0f3460" stroke="#e94560" stroke-width="2" rx="8"/>
  <text x="400" y="248" fill="#e94560" font-size="13" font-weight="bold" text-anchor="middle">FastAPI Server (app/main.py)</text>
  <text x="400" y="268" fill="#aab" font-size="10" text-anchor="middle">/api/generate  /api/upload  /api/process  /api/state  /api/profile  /api/metrics</text>

  <!-- Arrow -->
  <line x1="400" y1="290" x2="400" y2="320" stroke="#e94560" stroke-width="2"/>

  <!-- Simulation Engine -->
  <rect x="50" y="325" width="700" height="140" fill="none" stroke="#4ecdc4" stroke-width="2" rx="8" stroke-dasharray="6,3"/>
  <text x="70" y="345" fill="#4ecdc4" font-size="13" font-weight="bold">Simulation Engine</text>

  <rect x="70" y="355" width="125" height="50" fill="#0f3460" stroke="#aab" rx="5"/>
  <text x="132" y="377" fill="#eee" font-size="10" text-anchor="middle">depth_generator</text>
  <text x="132" y="393" fill="#aab" font-size="9" text-anchor="middle">5 scene types</text>

  <rect x="210" y="355" width="125" height="50" fill="#0f3460" stroke="#aab" rx="5"/>
  <text x="272" y="377" fill="#eee" font-size="10" text-anchor="middle">depth_processing</text>
  <text x="272" y="393" fill="#aab" font-size="9" text-anchor="middle">bilateral + holes</text>

  <rect x="350" y="355" width="125" height="50" fill="#0f3460" stroke="#aab" rx="5"/>
  <text x="412" y="377" fill="#eee" font-size="10" text-anchor="middle">surface_recon</text>
  <text x="412" y="393" fill="#aab" font-size="9" text-anchor="middle">mesh + curvature</text>

  <rect x="490" y="355" width="120" height="50" fill="#0f3460" stroke="#aab" rx="5"/>
  <text x="550" y="377" fill="#eee" font-size="10" text-anchor="middle">profile_analysis</text>
  <text x="550" y="393" fill="#aab" font-size="9" text-anchor="middle">Ra Rq Rz Rsk Rku</text>

  <rect x="625" y="355" width="110" height="50" fill="#0f3460" stroke="#aab" rx="5"/>
  <text x="680" y="377" fill="#eee" font-size="10" text-anchor="middle">colormap</text>
  <text x="680" y="393" fill="#aab" font-size="9" text-anchor="middle">viridis hot jet</text>

  <!-- Data flow labels -->
  <rect x="70" y="420" width="660" height="35" fill="#0f3460" stroke="#aab" rx="5"/>
  <text x="400" y="442" fill="#aab" font-size="10" text-anchor="middle">Data: RGB (H,W,3) uint8 | Depth (H,W) float32 | Normals (H,W,3) float32 | Mesh {vertices, faces, colors}</text>

  <!-- Arrow marker -->
  <defs>
    <marker id="arrowhead" markerWidth="10" markerHeight="7" refX="10" refY="3.5" orient="auto">
      <polygon points="0 0, 10 3.5, 0 7" fill="#e94560"/>
    </marker>
  </defs>
</svg>
