<svg xmlns="http://www.w3.org/2000/svg" width="1600" height="980" viewBox="0 0 1600 980" role="img" aria-labelledby="title desc">
  <title id="title">FeelIT Braille pipeline</title>
  <desc id="desc">Pipeline diagram for the FeelIT Braille reader showing the current blind-first flow from the scene-native library launcher to segmented document loading, translation, 3D realization, and future native haptic mapping.</desc>
  <defs>
    <linearGradient id="bg" x1="0" y1="0" x2="1" y2="1">
      <stop offset="0%" stop-color="#0d1117"/>
      <stop offset="50%" stop-color="#111827"/>
      <stop offset="100%" stop-color="#161b22"/>
    </linearGradient>
    <linearGradient id="panel" x1="0" y1="0" x2="0" y2="1">
      <stop offset="0%" stop-color="#152132"/>
      <stop offset="100%" stop-color="#101722"/>
    </linearGradient>
    <filter id="shadow" x="-20%" y="-20%" width="140%" height="140%">
      <feDropShadow dx="0" dy="14" stdDeviation="18" flood-color="#000000" flood-opacity="0.30"/>
    </filter>
    <marker id="arrowBlue" markerWidth="12" markerHeight="12" refX="10" refY="6" orient="auto">
      <path d="M0 0 L12 6 L0 12 Z" fill="#79c0ff"/>
    </marker>
    <marker id="arrowGreen" markerWidth="12" markerHeight="12" refX="10" refY="6" orient="auto">
      <path d="M0 0 L12 6 L0 12 Z" fill="#7ee787"/>
    </marker>
    <style>
      .title { font: 700 40px 'Segoe UI', sans-serif; fill: #e6edf3; }
      .subtitle { font: 400 18px 'Segoe UI', sans-serif; fill: #8b949e; }
      .cardTitle { font: 700 22px 'Segoe UI', sans-serif; fill: #e6edf3; }
      .section { font: 700 13px 'Segoe UI', sans-serif; fill: #8b949e; letter-spacing: 1.1px; }
      .body { font: 400 16px 'Segoe UI', sans-serif; fill: #9fb0c3; }
      .mono { font: 400 14px Consolas, monospace; fill: #d7e2ee; }
      .badge { font: 700 12px 'Segoe UI', sans-serif; fill: #0d1117; letter-spacing: 1px; }
      .legend { font: 600 14px 'Segoe UI', sans-serif; fill: #d3deea; }
      .smallBadge { font: 700 12px 'Segoe UI', sans-serif; fill: #e6edf3; letter-spacing: 0.8px; }
      .iconStroke { stroke: #e6edf3; stroke-width: 2.2; stroke-linecap: round; stroke-linejoin: round; fill: none; }
    </style>
  </defs>

  <rect width="1600" height="980" fill="url(#bg)"/>
  <circle cx="1430" cy="170" r="220" fill="#58a6ff" opacity="0.06"/>
  <circle cx="250" cy="860" r="220" fill="#7ee787" opacity="0.05"/>

  <text x="78" y="102" class="title">Braille Runtime Pipeline</text>
  <text x="78" y="136" class="subtitle">The verified current path already reaches a real tactile world in the browser. Native device force response remains an extension behind the same logical model.</text>

  <rect x="78" y="174" width="226" height="28" rx="14" fill="#79c0ff"/>
  <text x="102" y="193" class="badge">CURRENT RUNTIME FLOW</text>
  <rect x="1312" y="174" width="210" height="28" rx="14" fill="#7ee787"/>
  <text x="1337" y="193" class="badge">FUTURE EXTENSION</text>

  <rect x="78" y="228" width="250" height="182" rx="22" fill="url(#panel)" stroke="#79c0ff" stroke-width="2" filter="url(#shadow)"/>
  <circle cx="122" cy="272" r="22" fill="rgba(121,192,255,0.18)" stroke="#79c0ff"/>
  <circle cx="115" cy="264" r="3.2" fill="#e6edf3"/>
  <circle cx="129" cy="264" r="3.2" fill="#e6edf3"/>
  <circle cx="115" cy="272" r="3.2" fill="#e6edf3"/>
  <circle cx="129" cy="272" r="3.2" fill="#e6edf3"/>
  <circle cx="115" cy="280" r="3.2" fill="#e6edf3"/>
  <circle cx="129" cy="280" r="3.2" fill="#e6edf3"/>
  <text x="158" y="266" class="cardTitle">1. Scene Launcher</text>
  <text x="106" y="320" class="body">The user enters the Braille route and touches a</text>
  <text x="106" y="344" class="body">3D document target inside the library launcher.</text>
  <text x="106" y="374" class="mono">sceneMode = library-launcher</text>

  <rect x="378" y="228" width="270" height="182" rx="22" fill="url(#panel)" stroke="#58a6ff" stroke-width="2" filter="url(#shadow)"/>
  <circle cx="422" cy="272" r="22" fill="rgba(88,166,255,0.18)" stroke="#58a6ff"/>
  <path d="M412 266 H434" class="iconStroke"/>
  <path d="M415 273 H431" class="iconStroke"/>
  <path d="M418 280 H428" class="iconStroke"/>
  <text x="458" y="266" class="cardTitle">2. Library Segment</text>
  <text x="458" y="292" class="mono">GET /api/library/documents</text>
  <text x="458" y="316" class="mono">GET /api/library/documents/{slug}</text>
  <text x="406" y="356" class="body">Bundled TXT or HTML or EPUB content is clipped by</text>
  <text x="406" y="380" class="body">offset and max-chars before entering translation.</text>

  <rect x="698" y="228" width="282" height="182" rx="22" fill="url(#panel)" stroke="#7ee787" stroke-width="2" filter="url(#shadow)"/>
  <circle cx="742" cy="272" r="22" fill="rgba(126,231,135,0.18)" stroke="#7ee787"/>
  <circle cx="735" cy="264" r="3.2" fill="#e6edf3"/>
  <circle cx="749" cy="264" r="3.2" fill="#e6edf3"/>
  <circle cx="735" cy="272" r="3.2" fill="#e6edf3"/>
  <circle cx="749" cy="272" r="3.2" fill="#e6edf3"/>
  <circle cx="735" cy="280" r="3.2" fill="#e6edf3"/>
  <circle cx="749" cy="280" r="3.2" fill="#e6edf3"/>
  <text x="778" y="266" class="cardTitle">3. Preview Translation</text>
  <text x="778" y="292" class="mono">POST /api/braille/preview</text>
  <text x="726" y="332" class="body">The preview endpoint calls</text>
  <text x="726" y="356" class="mono">translate_text_to_cells()</text>
  <text x="726" y="380" class="mono">layout_braille_cells()</text>

  <rect x="1030" y="228" width="246" height="182" rx="22" fill="url(#panel)" stroke="#f2cc60" stroke-width="2" filter="url(#shadow)"/>
  <circle cx="1074" cy="272" r="22" fill="rgba(242,204,96,0.18)" stroke="#f2cc60"/>
  <path d="M1062 266 H1086" class="iconStroke"/>
  <path d="M1062 274 H1086" class="iconStroke"/>
  <path d="M1062 282 H1082" class="iconStroke"/>
  <text x="1110" y="266" class="cardTitle">4. Layout Payload</text>
  <text x="1110" y="292" class="mono">cells, rows, columns, masks</text>
  <text x="1058" y="344" class="body">The client receives positioned cells plus logical</text>
  <text x="1058" y="368" class="body">metadata ready for tactile scene realization.</text>

  <rect x="1326" y="228" width="196" height="182" rx="22" fill="url(#panel)" stroke="#c297ff" stroke-width="2" filter="url(#shadow)"/>
  <circle cx="1370" cy="272" r="22" fill="rgba(194,151,255,0.18)" stroke="#c297ff"/>
  <path d="M1358 264 H1382 V280 H1358 Z" class="iconStroke"/>
  <path d="M1364 272 H1376" class="iconStroke"/>
  <text x="1406" y="266" class="cardTitle">5. Session State</text>
  <text x="1354" y="320" class="body">Tracks current document, selected cell, library</text>
  <text x="1354" y="344" class="body">page, segment offsets, and paired audio state.</text>

  <rect x="128" y="526" width="664" height="248" rx="24" fill="url(#panel)" stroke="#79c0ff" stroke-width="2" filter="url(#shadow)"/>
  <circle cx="178" cy="578" r="24" fill="rgba(121,192,255,0.18)" stroke="#79c0ff"/>
  <circle cx="171" cy="570" r="3.2" fill="#e6edf3"/>
  <circle cx="185" cy="570" r="3.2" fill="#e6edf3"/>
  <circle cx="171" cy="578" r="3.2" fill="#e6edf3"/>
  <circle cx="185" cy="578" r="3.2" fill="#e6edf3"/>
  <circle cx="171" cy="586" r="3.2" fill="#e6edf3"/>
  <circle cx="185" cy="586" r="3.2" fill="#e6edf3"/>
  <text x="218" y="572" class="cardTitle">6. 3D Reading World</text>
  <text x="218" y="598" class="mono">braille_reader.js + three_scene_common.js</text>
  <text x="160" y="646" class="body">The browser builds a bounded tactile board with raised</text>
  <text x="160" y="670" class="body">cells, an orientation cue, a page bridge, and tactile</text>
  <text x="160" y="694" class="body">controls for previous, next, and return-to-library.</text>

  <rect x="160" y="718" width="274" height="30" rx="15" fill="rgba(126,231,135,0.16)" stroke="#7ee787"/>
  <text x="180" y="737" class="smallBadge">Primary control surface stays inside the 3D world</text>
  <rect x="456" y="718" width="276" height="30" rx="15" fill="rgba(242,204,96,0.16)" stroke="#f2cc60"/>
  <text x="476" y="737" class="smallBadge">Camera state persists across scene changes on the route</text>

  <rect x="838" y="526" width="322" height="248" rx="24" fill="url(#panel)" stroke="#ffa657" stroke-width="2" filter="url(#shadow)"/>
  <circle cx="888" cy="578" r="24" fill="rgba(255,166,87,0.18)" stroke="#ffa657"/>
  <rect x="878" y="568" width="20" height="20" rx="4" class="iconStroke"/>
  <path d="M874 574 H878" class="iconStroke"/>
  <path d="M900 574 H904" class="iconStroke"/>
  <text x="928" y="572" class="cardTitle">7. Support Surfaces</text>
  <text x="868" y="628" class="body">A secondary 2D board helps interpretation and an</text>
  <text x="868" y="652" class="body">optional public-domain audio track can accompany the</text>
  <text x="868" y="676" class="body">same document, but neither replaces tactile reading.</text>

  <rect x="1208" y="526" width="314" height="248" rx="24" fill="url(#panel)" stroke="#7ee787" stroke-width="2" filter="url(#shadow)"/>
  <circle cx="1258" cy="578" r="24" fill="rgba(126,231,135,0.18)" stroke="#7ee787"/>
  <rect x="1248" y="568" width="20" height="20" rx="4" class="iconStroke"/>
  <path d="M1244 574 H1248" class="iconStroke"/>
  <path d="M1270 574 H1274" class="iconStroke"/>
  <text x="1298" y="572" class="cardTitle">8. Native Mapping Later</text>
  <text x="1238" y="628" class="body">The same logical cells, bounds, and navigation cues</text>
  <text x="1238" y="652" class="body">can later drive a physical force-feedback workspace</text>
  <text x="1238" y="676" class="body">without changing the Braille content model itself.</text>

  <path d="M328 318 H378" fill="none" stroke="#79c0ff" stroke-width="5" marker-end="url(#arrowBlue)"/>
  <path d="M648 318 H698" fill="none" stroke="#79c0ff" stroke-width="5" marker-end="url(#arrowBlue)"/>
  <path d="M980 318 H1030" fill="none" stroke="#79c0ff" stroke-width="5" marker-end="url(#arrowBlue)"/>
  <path d="M1276 318 H1326" fill="none" stroke="#79c0ff" stroke-width="5" marker-end="url(#arrowBlue)"/>
  <path d="M1153 410 V468 H460 V526" fill="none" stroke="#79c0ff" stroke-width="5" marker-end="url(#arrowBlue)"/>
  <path d="M1424 410 V526" fill="none" stroke="#79c0ff" stroke-width="5" marker-end="url(#arrowBlue)"/>
  <path d="M1158 650 H1208" fill="none" stroke="#7ee787" stroke-width="5" marker-end="url(#arrowGreen)"/>

  <rect x="78" y="836" width="1444" height="94" rx="22" fill="#111827" stroke="#30363d"/>
  <text x="110" y="872" class="cardTitle">Operational Baseline</text>
  <text x="110" y="904" class="legend">Blue connectors represent the verified runtime path already implemented in FeelIT 2.06.002. The green connector marks the future extension where the same Braille model can later feed a native haptic backend.</text>
</svg>
