<svg xmlns="http://www.w3.org/2000/svg" width="1600" height="980" viewBox="0 0 1600 980" role="img" aria-labelledby="title desc">
  <title id="title">FeelIT mode map</title>
  <desc id="desc">Mode map for FeelIT showing the four routed workspaces, their current maturity, their blind-first role, and the shared runtime contract that ties the application together.</desc>
  <defs>
    <linearGradient id="bg" x1="0" y1="0" x2="1" y2="1">
      <stop offset="0%" stop-color="#0d1117"/>
      <stop offset="52%" stop-color="#111827"/>
      <stop offset="100%" stop-color="#161b22"/>
    </linearGradient>
    <linearGradient id="card" x1="0" y1="0" x2="0" y2="1">
      <stop offset="0%" stop-color="#152132"/>
      <stop offset="100%" stop-color="#101722"/>
    </linearGradient>
    <filter id="shadow" x="-20%" y="-20%" width="140%" height="140%">
      <feDropShadow dx="0" dy="14" stdDeviation="18" flood-color="#000000" flood-opacity="0.28"/>
    </filter>
    <marker id="arrow" markerWidth="12" markerHeight="12" refX="10" refY="6" orient="auto">
      <path d="M0 0 L12 6 L0 12 Z" fill="#79c0ff"/>
    </marker>
    <style>
      .title { font: 700 40px 'Segoe UI', sans-serif; fill: #e6edf3; }
      .subtitle { font: 400 18px 'Segoe UI', sans-serif; fill: #8b949e; }
      .cardTitle { font: 700 24px 'Segoe UI', sans-serif; fill: #e6edf3; }
      .section { font: 700 13px 'Segoe UI', sans-serif; fill: #8b949e; letter-spacing: 1.2px; }
      .body { font: 400 16px 'Segoe UI', sans-serif; fill: #9fb0c3; }
      .mono { font: 400 14px Consolas, monospace; fill: #d7e2ee; }
      .badge { font: 700 12px 'Segoe UI', sans-serif; fill: #0d1117; letter-spacing: 1px; }
      .smallBadge { font: 700 12px 'Segoe UI', sans-serif; fill: #e6edf3; letter-spacing: 0.8px; }
      .legend { font: 600 14px 'Segoe UI', sans-serif; fill: #d3deea; }
      .iconStroke { stroke: #e6edf3; stroke-width: 2.2; stroke-linecap: round; stroke-linejoin: round; fill: none; }
    </style>
  </defs>

  <rect width="1600" height="980" fill="url(#bg)"/>
  <circle cx="1450" cy="180" r="220" fill="#58a6ff" opacity="0.06"/>
  <circle cx="220" cy="850" r="210" fill="#c297ff" opacity="0.05"/>

  <text x="78" y="102" class="title">FeelIT Mode Map</text>
  <text x="78" y="136" class="subtitle">Each route owns one primary job, but all four sit inside the same blind-first shell, device boundary, and release-governed documentation surface.</text>

  <rect x="78" y="192" width="684" height="274" rx="26" fill="url(#card)" stroke="#58a6ff" stroke-width="2" filter="url(#shadow)"/>
  <rect x="838" y="192" width="684" height="274" rx="26" fill="url(#card)" stroke="#7ee787" stroke-width="2" filter="url(#shadow)"/>
  <rect x="78" y="500" width="684" height="274" rx="26" fill="url(#card)" stroke="#c297ff" stroke-width="2" filter="url(#shadow)"/>
  <rect x="838" y="500" width="684" height="274" rx="26" fill="url(#card)" stroke="#f2cc60" stroke-width="2" filter="url(#shadow)"/>

  <circle cx="136" cy="250" r="24" fill="rgba(88,166,255,0.18)" stroke="#58a6ff"/>
  <path d="M124 252 L136 244 L148 252 L148 266 L136 274 L124 266 Z" class="iconStroke"/>
  <path d="M136 244 V258" class="iconStroke"/>
  <path d="M124 252 L136 260 L148 252" class="iconStroke"/>
  <rect x="174" y="228" width="92" height="28" rx="14" fill="#58a6ff"/>
  <text x="196" y="246" class="badge">STAGED</text>
  <text x="110" y="308" class="cardTitle">3D Object Explorer</text>
  <text x="110" y="336" class="mono">/object-explorer</text>
  <text x="110" y="382" class="section">PRIMARY ROLE</text>
  <text x="110" y="410" class="body">Prepare bounded tactile exploration sessions for</text>
  <text x="110" y="434" class="body">real OBJ geometry, material presets, and scale tuning.</text>
  <text x="110" y="482" class="section">CURRENT BASELINE</text>
  <text x="110" y="510" class="body">Bundled model catalog, local OBJ upload, persistent</text>
  <text x="110" y="534" class="body">camera view, scene pointer traversal, and material</text>
  <text x="110" y="558" class="body">inspection tied to plausible haptic profiles.</text>

  <circle cx="896" cy="250" r="24" fill="rgba(126,231,135,0.18)" stroke="#7ee787"/>
  <circle cx="889" cy="242" r="3.2" fill="#e6edf3"/>
  <circle cx="903" cy="242" r="3.2" fill="#e6edf3"/>
  <circle cx="889" cy="250" r="3.2" fill="#e6edf3"/>
  <circle cx="903" cy="250" r="3.2" fill="#e6edf3"/>
  <circle cx="889" cy="258" r="3.2" fill="#e6edf3"/>
  <circle cx="903" cy="258" r="3.2" fill="#e6edf3"/>
  <rect x="934" y="228" width="88" height="28" rx="14" fill="#7ee787"/>
  <text x="960" y="246" class="badge">ACTIVE</text>
  <text x="870" y="308" class="cardTitle">Braille Reader</text>
  <text x="870" y="336" class="mono">/braille-reader</text>
  <text x="870" y="382" class="section">PRIMARY ROLE</text>
  <text x="870" y="410" class="body">Deliver scene-native tactile reading from a bundled</text>
  <text x="870" y="434" class="body">library into a bounded Braille world that mirrors a</text>
  <text x="870" y="458" class="body">future haptic reading surface.</text>
  <text x="870" y="506" class="section">CURRENT BASELINE</text>
  <text x="870" y="534" class="body">3D library launcher, segmented TXT or HTML or EPUB</text>
  <text x="870" y="558" class="body">loading, preview translation, tactile page controls,</text>
  <text x="870" y="582" class="body">optional companion audio, and a secondary debug board.</text>

  <circle cx="136" cy="558" r="24" fill="rgba(194,151,255,0.18)" stroke="#c297ff"/>
  <path d="M124 549 H139 L143 555 H151 V567 H124 Z" class="iconStroke"/>
  <path d="M130 561 H145" class="iconStroke"/>
  <rect x="174" y="536" width="118" height="28" rx="14" fill="#c297ff"/>
  <text x="193" y="554" class="badge">PROTOTYPE</text>
  <text x="110" y="616" class="cardTitle">Haptic Desktop</text>
  <text x="110" y="644" class="mono">/haptic-desktop</text>
  <text x="110" y="690" class="section">PRIMARY ROLE</text>
  <text x="110" y="718" class="body">Present a controlled tactile workspace where users</text>
  <text x="110" y="742" class="body">move between launcher, galleries, file browser, and</text>
  <text x="110" y="766" class="body">opened content scenes without leaving the 3D world.</text>
  <text x="350" y="690" class="section">CURRENT BASELINE</text>
  <text x="350" y="718" class="body">Structured workspace loading, paged galleries for</text>
  <text x="350" y="742" class="body">models, texts, and audio, typed file browser items,</text>
  <text x="350" y="766" class="body">and explicit Gallery or Browser plus Launcher returns.</text>

  <circle cx="896" cy="558" r="24" fill="rgba(242,204,96,0.18)" stroke="#f2cc60"/>
  <rect x="886" y="548" width="20" height="20" rx="3.5" class="iconStroke"/>
  <path d="M891 554 H901" class="iconStroke"/>
  <path d="M891 560 H901" class="iconStroke"/>
  <path d="M891 566 H898" class="iconStroke"/>
  <rect x="934" y="536" width="88" height="28" rx="14" fill="#f2cc60"/>
  <text x="960" y="554" class="badge">ACTIVE</text>
  <text x="870" y="616" class="cardTitle">Workspace Manager</text>
  <text x="870" y="644" class="mono">/haptic-workspace-manager</text>
  <text x="870" y="690" class="section">PRIMARY ROLE</text>
  <text x="870" y="718" class="body">Create and register structured workspace descriptor</text>
  <text x="870" y="742" class="body">files so large external folders can power the haptic</text>
  <text x="870" y="766" class="body">desktop without being copied inside the application.</text>
  <text x="1110" y="690" class="section">CURRENT BASELINE</text>
  <text x="1110" y="718" class="body">Demo workspace bootstrapping, descriptor creation,</text>
  <text x="1110" y="742" class="body">external-root registration, and route-level workspace</text>
  <text x="1110" y="766" class="body">inspection for the desktop runtime.</text>

  <rect x="78" y="830" width="1444" height="102" rx="24" fill="#111827" stroke="#30363d" stroke-width="2"/>
  <text x="110" y="870" class="cardTitle">Shared Runtime Contract</text>
  <text x="110" y="902" class="body">All four routes inherit one dark workbench shell, one padded version source, one null-safe haptic backend, one browser smoke baseline, and one recurring documentation plus SVG audit before a cycle can be closed.</text>

  <rect x="110" y="916" width="250" height="30" rx="15" fill="rgba(88,166,255,0.16)" stroke="#58a6ff"/>
  <text x="128" y="935" class="smallBadge">Real 3D scene as the primary pane</text>
  <rect x="384" y="916" width="262" height="30" rx="15" fill="rgba(126,231,135,0.16)" stroke="#7ee787"/>
  <text x="402" y="935" class="smallBadge">Help, runtime status, and version surface</text>
  <rect x="670" y="916" width="282" height="30" rx="15" fill="rgba(194,151,255,0.16)" stroke="#c297ff"/>
  <text x="688" y="935" class="smallBadge">Pointer emulation for no-device execution</text>
  <rect x="976" y="916" width="514" height="30" rx="15" fill="rgba(242,204,96,0.16)" stroke="#f2cc60"/>
  <text x="994" y="935" class="smallBadge">Documentation, diagrams, snapshots, and help text must match the shipped runtime</text>

  <path d="M420 774 V830" fill="none" stroke="#79c0ff" stroke-width="5" marker-end="url(#arrow)"/>
  <path d="M1180 774 V830" fill="none" stroke="#79c0ff" stroke-width="5" marker-end="url(#arrow)"/>

  <rect x="78" y="154" width="224" height="26" rx="13" fill="#79c0ff"/>
  <text x="101" y="172" class="badge">ROUTED WORKSPACES</text>
  <rect x="1314" y="154" width="208" height="26" rx="13" fill="rgba(255,255,255,0.10)" stroke="#30363d"/>
  <text x="1338" y="172" class="legend">Release line: 2.06.002 current baseline</text>
</svg>
