<svg xmlns="http://www.w3.org/2000/svg" width="1600" height="940" viewBox="0 0 1600 940" role="img" aria-labelledby="title desc">
  <title id="title">FeelIT legacy to modern mapping</title>
  <desc id="desc">Diagram separating verified legacy evidence from modernization interpretation and the current modern FeelIT baseline.</desc>
  <defs>
    <linearGradient id="bg" x1="0" y1="0" x2="1" y2="1">
      <stop offset="0%" stop-color="#0d1117"/>
      <stop offset="100%" stop-color="#161b22"/>
    </linearGradient>
    <linearGradient id="panel" x1="0" y1="0" x2="0" y2="1">
      <stop offset="0%" stop-color="#152132"/>
      <stop offset="100%" stop-color="#101722"/>
    </linearGradient>
    <filter id="shadow" x="-20%" y="-20%" width="140%" height="140%">
      <feDropShadow dx="0" dy="14" stdDeviation="18" flood-color="#000000" flood-opacity="0.30"/>
    </filter>
    <marker id="arrow" markerWidth="12" markerHeight="12" refX="10" refY="6" orient="auto">
      <path d="M0 0 L12 6 L0 12 Z" fill="#79c0ff"/>
    </marker>
    <style>
      .title { font: 700 40px 'Segoe UI', sans-serif; fill: #e6edf3; }
      .subtitle { font: 400 18px 'Segoe UI', sans-serif; fill: #8b949e; }
      .cardTitle { font: 700 24px 'Segoe UI', sans-serif; fill: #e6edf3; }
      .section { font: 700 13px 'Segoe UI', sans-serif; fill: #8b949e; letter-spacing: 1.2px; }
      .body { font: 400 16px 'Segoe UI', sans-serif; fill: #9fb0c3; }
      .mono { font: 400 14px Consolas, monospace; fill: #d7e2ee; }
      .badge { font: 700 12px 'Segoe UI', sans-serif; fill: #0d1117; letter-spacing: 1px; }
      .legend { font: 600 14px 'Segoe UI', sans-serif; fill: #d3deea; }
      .iconStroke { stroke: #e6edf3; stroke-width: 2.2; stroke-linecap: round; stroke-linejoin: round; fill: none; }
    </style>
  </defs>

  <rect width="1600" height="940" fill="url(#bg)"/>
  <circle cx="1360" cy="170" r="220" fill="#58a6ff" opacity="0.06"/>
  <circle cx="260" cy="800" r="210" fill="#7ee787" opacity="0.05"/>

  <text x="78" y="102" class="title">Legacy To Modern Mapping</text>
  <text x="78" y="136" class="subtitle">Separate what the preserved archive proves from what the modern rebuild intentionally adds.</text>

  <rect x="78" y="194" width="438" height="560" rx="26" fill="url(#panel)" stroke="#7ee787" stroke-width="2" filter="url(#shadow)"/>
  <rect x="580" y="194" width="438" height="560" rx="26" fill="url(#panel)" stroke="#79c0ff" stroke-width="2" filter="url(#shadow)"/>
  <rect x="1082" y="194" width="440" height="560" rx="26" fill="url(#panel)" stroke="#ffa657" stroke-width="2" filter="url(#shadow)"/>

  <circle cx="136" cy="252" r="24" fill="rgba(126,231,135,0.18)" stroke="#7ee787"/>
  <path d="M127 240 H145 V264 H127 Z" class="iconStroke"/>
  <path d="M131 245 H141" class="iconStroke"/>
  <path d="M131 251 H141" class="iconStroke"/>
  <path d="M131 257 H138" class="iconStroke"/>
  <rect x="174" y="230" width="124" height="28" rx="14" fill="#7ee787"/>
  <text x="193" y="248" class="badge">VERIFIED</text>
  <text x="110" y="312" class="cardTitle">Recovered Legacy Evidence</text>
  <text x="110" y="340" class="mono">v1.7.5 manual and preserved source fragments</text>
  <text x="110" y="390" class="section">CONFIRMED CAPABILITIES</text>
  <text x="110" y="418" class="body">Text-file loading, character-level Braille conversion,</text>
  <text x="110" y="442" class="body">OpenGL visualization, and optional Falcon-class haptics.</text>
  <text x="110" y="492" class="section">EVIDENCE TYPES</text>
  <text x="110" y="520" class="body">User manual, registration documents, preserved binaries,</text>
  <text x="110" y="544" class="body">and a reduced but meaningful source tree.</text>
  <text x="110" y="594" class="section">CLAIM BOUNDARY</text>
  <text x="110" y="622" class="body">The archive does not prove a finished general 3D explorer</text>
  <text x="110" y="646" class="body">or a completed tactile desktop environment.</text>

  <circle cx="638" cy="252" r="24" fill="rgba(121,192,255,0.18)" stroke="#79c0ff"/>
  <circle cx="630" cy="252" r="3.2" fill="#e6edf3"/>
  <circle cx="646" cy="244" r="3.2" fill="#e6edf3"/>
  <circle cx="646" cy="260" r="3.2" fill="#e6edf3"/>
  <path d="M633 252 H643" class="iconStroke"/>
  <path d="M630 252 L646 244" class="iconStroke"/>
  <path d="M630 252 L646 260" class="iconStroke"/>
  <rect x="676" y="230" width="124" height="28" rx="14" fill="#79c0ff"/>
  <text x="694" y="248" class="badge">INTERPRETED</text>
  <text x="612" y="312" class="cardTitle">Modernization Rules</text>
  <text x="612" y="340" class="mono">Engineering layer between evidence and product scope</text>
  <text x="612" y="390" class="section">WHAT THE REBUILD KEEPS</text>
  <text x="612" y="418" class="body">Braille stays first-class, hardware remains optional,</text>
  <text x="612" y="442" class="body">and all interaction happens inside bounded workspaces.</text>
  <text x="612" y="492" class="section">WHAT THE REBUILD ADDS</text>
  <text x="612" y="520" class="body">Shared backend plus workbench frontend, canonical</text>
  <text x="612" y="544" class="body">release governance, device abstraction, and 3D worlds.</text>
  <text x="612" y="594" class="section">INTERPRETATION RULE</text>
  <text x="612" y="622" class="body">Verified legacy facts stay labeled as verified. New</text>
  <text x="612" y="646" class="body">capabilities stay labeled as modernization work.</text>

  <circle cx="1140" cy="252" r="24" fill="rgba(255,166,87,0.18)" stroke="#ffa657"/>
  <path d="M1128 254 L1140 246 L1152 254 L1152 268 L1140 276 L1128 268 Z" class="iconStroke"/>
  <path d="M1140 246 V260" class="iconStroke"/>
  <path d="M1128 254 L1140 262 L1152 254" class="iconStroke"/>
  <rect x="1178" y="230" width="136" height="28" rx="14" fill="#ffa657"/>
  <text x="1199" y="248" class="badge">CURRENT BASELINE</text>
  <text x="1114" y="312" class="cardTitle">Modern FeelIT Scope</text>
  <text x="1114" y="340" class="mono">Operational baseline plus structured next layers</text>
  <text x="1114" y="390" class="section">OPERATIONAL NOW</text>
  <text x="1114" y="418" class="body">Four routed workspaces, scene-native Braille library</text>
  <text x="1114" y="442" class="body">launch, structured desktop workspaces, and null-safe 3D scenes.</text>
  <text x="1114" y="492" class="section">NEXT CAPABILITIES</text>
  <text x="1114" y="520" class="body">Native haptic bridge, richer geometry ingestion,</text>
  <text x="1114" y="544" class="body">desktop action graph, and stronger workspace validation.</text>
  <text x="1114" y="594" class="section">DOCUMENTATION RULE</text>
  <text x="1114" y="622" class="body">Scope, architecture, theory, diagrams, and history</text>
  <text x="1114" y="646" class="body">must evolve together whenever product meaning changes.</text>

  <path d="M516 474 H580" fill="none" stroke="#79c0ff" stroke-width="5" marker-end="url(#arrow)"/>
  <path d="M1018 474 H1082" fill="none" stroke="#79c0ff" stroke-width="5" marker-end="url(#arrow)"/>

  <rect x="78" y="804" width="1444" height="98" rx="22" fill="#111827" stroke="#30363d"/>
  <text x="110" y="840" class="cardTitle">Claim Discipline</text>
  <text x="110" y="872" class="legend">Green panels represent historically verifiable evidence. Blue panels represent explicit engineering interpretation. Orange panels represent the delivered or planned modern product scope.</text>
</svg>
