<?xml version="1.0" encoding="UTF-8"?>
<svg xmlns="http://www.w3.org/2000/svg" width="800" height="400" viewBox="0 0 800 400">
  <defs>
    <linearGradient id="bg" x1="0" y1="0" x2="0" y2="1">
      <stop offset="0%" style="stop-color:#0d1b2a"/>
      <stop offset="100%" style="stop-color:#1b2d45"/>
    </linearGradient>
    <linearGradient id="specVNIR" x1="0" y1="0" x2="1" y2="0">
      <stop offset="0%" style="stop-color:#7b2ff7"/>
      <stop offset="30%" style="stop-color:#00b4d8"/>
      <stop offset="60%" style="stop-color:#00cc44"/>
      <stop offset="80%" style="stop-color:#ffcc00"/>
      <stop offset="100%" style="stop-color:#ff3300"/>
    </linearGradient>
    <linearGradient id="specSWIR" x1="0" y1="0" x2="1" y2="0">
      <stop offset="0%" style="stop-color:#ff3300"/>
      <stop offset="50%" style="stop-color:#cc0000"/>
      <stop offset="100%" style="stop-color:#660000"/>
    </linearGradient>
    <linearGradient id="boxGrad" x1="0" y1="0" x2="0" y2="1">
      <stop offset="0%" style="stop-color:#142840"/>
      <stop offset="100%" style="stop-color:#0e1f35"/>
    </linearGradient>
    <linearGradient id="encGrad" x1="0" y1="0" x2="1" y2="0">
      <stop offset="0%" style="stop-color:#00b4d8"/>
      <stop offset="100%" style="stop-color:#0077b6"/>
    </linearGradient>
    <linearGradient id="decGrad" x1="0" y1="0" x2="1" y2="0">
      <stop offset="0%" style="stop-color:#0077b6"/>
      <stop offset="100%" style="stop-color:#00b4d8"/>
    </linearGradient>
  </defs>

  <!-- Background -->
  <rect width="800" height="400" fill="url(#bg)"/>

  <!-- Title -->
  <text x="400" y="24" style="font-family:Arial,sans-serif;font-size:15px;font-weight:bold;fill:#48cae4;text-anchor:middle;">HyClusVi &#x2014; Hyperspectral Clustering &amp; Visualization Pipeline</text>

  <!-- ========== LEFT: Hyperspectral Acquisition ========== -->
  <rect x="15" y="38" width="155" height="200" rx="6" style="fill:url(#boxGrad);stroke:#1a3a5c;stroke-width:1;"/>
  <text x="92" y="56" style="font-family:Arial,sans-serif;font-size:10px;font-weight:bold;fill:#48cae4;text-anchor:middle;">Hyperspectral Acquisition</text>

  <!-- VNIR Camera icon -->
  <rect x="30" y="68" width="50" height="32" rx="4" style="fill:#1a3a5c;stroke:#00b4d8;stroke-width:1.2;"/>
  <circle cx="55" cy="84" r="10" style="fill:#0a1628;stroke:#00b4d8;stroke-width:1;"/>
  <circle cx="55" cy="84" r="5" style="fill:#00b4d8;opacity:0.3;"/>
  <text x="55" y="114" style="font-family:Arial,sans-serif;font-size:8px;font-weight:bold;fill:#00b4d8;text-anchor:middle;">VNIR</text>
  <text x="55" y="124" style="font-family:Arial,sans-serif;font-size:7px;fill:#7a9ab8;text-anchor:middle;">400&#x2013;1000nm</text>

  <!-- SWIR Camera icon -->
  <rect x="100" y="68" width="50" height="32" rx="4" style="fill:#1a3a5c;stroke:#e07a2f;stroke-width:1.2;"/>
  <circle cx="125" cy="84" r="10" style="fill:#0a1628;stroke:#e07a2f;stroke-width:1;"/>
  <circle cx="125" cy="84" r="5" style="fill:#e07a2f;opacity:0.3;"/>
  <text x="125" y="114" style="font-family:Arial,sans-serif;font-size:8px;font-weight:bold;fill:#e07a2f;text-anchor:middle;">SWIR</text>
  <text x="125" y="124" style="font-family:Arial,sans-serif;font-size:7px;fill:#7a9ab8;text-anchor:middle;">1000&#x2013;2500nm</text>

  <!-- Spectral curve -->
  <rect x="28" y="135" width="125" height="50" rx="3" style="fill:#0a1628;stroke:#1a3a5c;stroke-width:0.8;"/>
  <!-- Axis -->
  <line x1="38" y1="175" x2="143" y2="175" style="stroke:#3a5a7a;stroke-width:0.5;"/>
  <line x1="38" y1="145" x2="38" y2="175" style="stroke:#3a5a7a;stroke-width:0.5;"/>
  <!-- Spectral curve line -->
  <path d="M40,168 C50,165 55,158 60,155 C65,150 68,148 72,152 C76,156 80,160 85,158 C90,155 95,148 100,145 C105,148 110,155 115,160 C120,163 125,165 130,162 C135,158 140,155 142,158" style="fill:none;stroke:#48cae4;stroke-width:1.5;"/>
  <!-- Second curve for SWIR -->
  <path d="M40,170 C50,168 55,165 60,163 C65,160 70,158 75,162 C80,165 85,168 90,166 C95,163 100,158 105,155 C110,158 115,163 120,167 C125,170 130,172 135,170 C140,168 142,166 142,168" style="fill:none;stroke:#e07a2f;stroke-width:1;opacity:0.7;"/>
  <!-- Axis labels -->
  <text x="90" y="184" style="font-family:Arial,sans-serif;font-size:6px;fill:#7a9ab8;text-anchor:middle;">Wavelength (nm)</text>
  <text x="90" y="198" style="font-family:Arial,sans-serif;font-size:7px;fill:#7a9ab8;text-anchor:middle;">Reflectance Spectra</text>

  <!-- Conveyor / sample illustration -->
  <rect x="30" y="205" width="125" height="22" rx="3" style="fill:#1a3a5c;stroke:#2a5a7c;stroke-width:0.8;"/>
  <text x="92" y="219" style="font-family:Arial,sans-serif;font-size:7px;fill:#90a4ae;text-anchor:middle;">Ore Sample on Conveyor</text>

  <!-- Arrow to center -->
  <polygon points="178,130 188,125 188,135" style="fill:#48cae4;"/>
  <line x1="170" y1="130" x2="188" y2="130" style="stroke:#48cae4;stroke-width:1.5;"/>

  <!-- ========== CENTER TOP: Preprocessing + Autoencoder ========== -->
  <rect x="195" y="38" width="145" height="18" rx="4" style="fill:#1a3a5c;stroke:#48cae4;stroke-width:1;"/>
  <text x="267" y="51" style="font-family:Arial,sans-serif;font-size:9px;font-weight:bold;fill:#48cae4;text-anchor:middle;">Preprocessing</text>

  <!-- Arrow down -->
  <line x1="267" y1="56" x2="267" y2="68" style="stroke:#48cae4;stroke-width:1;"/>
  <polygon points="267,72 263,66 271,66" style="fill:#48cae4;"/>

  <!-- Convolutional Autoencoder box -->
  <rect x="195" y="75" width="310" height="100" rx="6" style="fill:url(#boxGrad);stroke:#1a3a5c;stroke-width:1;"/>
  <text x="350" y="90" style="font-family:Arial,sans-serif;font-size:10px;font-weight:bold;fill:#48cae4;text-anchor:middle;">Convolutional Autoencoder</text>

  <!-- Encoder layers -->
  <text x="228" y="106" style="font-family:Arial,sans-serif;font-size:7px;fill:#90a4ae;text-anchor:middle;">Encoder</text>
  <rect x="208" y="110" width="14" height="52" rx="2" style="fill:url(#encGrad);opacity:0.9;"/>
  <text x="215" y="140" style="font-family:Arial,sans-serif;font-size:6px;fill:#fff;text-anchor:middle;writing-mode:tb;">128</text>
  <rect x="228" y="116" width="14" height="40" rx="2" style="fill:url(#encGrad);opacity:0.8;"/>
  <text x="235" y="140" style="font-family:Arial,sans-serif;font-size:6px;fill:#fff;text-anchor:middle;writing-mode:tb;">64</text>
  <rect x="248" y="122" width="14" height="28" rx="2" style="fill:url(#encGrad);opacity:0.7;"/>
  <text x="255" y="139" style="font-family:Arial,sans-serif;font-size:6px;fill:#fff;text-anchor:middle;writing-mode:tb;">32</text>
  <rect x="268" y="127" width="14" height="18" rx="2" style="fill:url(#encGrad);opacity:0.6;"/>
  <text x="275" y="139" style="font-family:Arial,sans-serif;font-size:6px;fill:#fff;text-anchor:middle;writing-mode:tb;">16</text>

  <!-- Bottleneck (latent space) -->
  <rect x="290" y="131" width="18" height="10" rx="3" style="fill:#e07a2f;stroke:#ff9a3c;stroke-width:1;"/>
  <text x="299" y="139" style="font-family:Arial,sans-serif;font-size:6px;font-weight:bold;fill:#fff;text-anchor:middle;">4</text>
  <text x="299" y="156" style="font-family:Arial,sans-serif;font-size:6px;fill:#e07a2f;text-anchor:middle;">Latent</text>

  <!-- Decoder layers -->
  <text x="370" y="106" style="font-family:Arial,sans-serif;font-size:7px;fill:#90a4ae;text-anchor:middle;">Decoder</text>
  <rect x="316" y="127" width="14" height="18" rx="2" style="fill:url(#decGrad);opacity:0.6;"/>
  <text x="323" y="139" style="font-family:Arial,sans-serif;font-size:6px;fill:#fff;text-anchor:middle;writing-mode:tb;">4</text>
  <rect x="336" y="122" width="14" height="28" rx="2" style="fill:url(#decGrad);opacity:0.7;"/>
  <text x="343" y="139" style="font-family:Arial,sans-serif;font-size:6px;fill:#fff;text-anchor:middle;writing-mode:tb;">16</text>
  <rect x="356" y="116" width="14" height="40" rx="2" style="fill:url(#decGrad);opacity:0.8;"/>
  <text x="363" y="140" style="font-family:Arial,sans-serif;font-size:6px;fill:#fff;text-anchor:middle;writing-mode:tb;">32</text>
  <rect x="376" y="110" width="14" height="52" rx="2" style="fill:url(#decGrad);opacity:0.9;"/>
  <text x="383" y="140" style="font-family:Arial,sans-serif;font-size:6px;fill:#fff;text-anchor:middle;writing-mode:tb;">64</text>
  <rect x="396" y="110" width="14" height="52" rx="2" style="fill:url(#decGrad);opacity:1;"/>
  <text x="403" y="140" style="font-family:Arial,sans-serif;font-size:6px;fill:#fff;text-anchor:middle;writing-mode:tb;">128</text>

  <!-- Loss arrow -->
  <path d="M415,136 C425,136 430,130 435,136 C440,142 445,136 455,136" style="fill:none;stroke:#e07a2f;stroke-width:1;stroke-dasharray:2,2;"/>
  <text x="465" y="133" style="font-family:Arial,sans-serif;font-size:7px;fill:#e07a2f;text-anchor:start;">Reconstruction</text>
  <text x="465" y="142" style="font-family:Arial,sans-serif;font-size:7px;fill:#e07a2f;text-anchor:start;">Loss</text>

  <!-- ========== CENTER BOTTOM: Dimensionality Reduction ========== -->
  <rect x="195" y="185" width="310" height="65" rx="6" style="fill:url(#boxGrad);stroke:#1a3a5c;stroke-width:1;"/>
  <text x="350" y="200" style="font-family:Arial,sans-serif;font-size:10px;font-weight:bold;fill:#48cae4;text-anchor:middle;">Dimensionality Reduction</text>

  <!-- Path 1: PCA + t-SNE -->
  <rect x="215" y="208" width="110" height="18" rx="4" style="fill:#1a3a5c;stroke:#00b4d8;stroke-width:1;"/>
  <text x="270" y="220" style="font-family:Arial,sans-serif;font-size:8px;fill:#00b4d8;text-anchor:middle;">PCA + t-SNE</text>

  <!-- Path 2: Autoencoder + t-SNE -->
  <rect x="345" y="208" width="140" height="18" rx="4" style="fill:#1a3a5c;stroke:#e07a2f;stroke-width:1;"/>
  <text x="415" y="220" style="font-family:Arial,sans-serif;font-size:8px;fill:#e07a2f;text-anchor:middle;">Autoencoder + t-SNE</text>

  <!-- Connection from AE latent to AE+tSNE -->
  <path d="M299,165 L299,175 L415,175 L415,208" style="fill:none;stroke:#e07a2f;stroke-width:1;stroke-dasharray:3,2;"/>

  <!-- Labels for paths -->
  <text x="270" y="240" style="font-family:Arial,sans-serif;font-size:7px;fill:#7a9ab8;text-anchor:middle;">Baseline</text>
  <text x="415" y="240" style="font-family:Arial,sans-serif;font-size:7px;fill:#7a9ab8;text-anchor:middle;">Proposed</text>

  <!-- Arrow to right section -->
  <polygon points="515,160 525,155 525,165" style="fill:#48cae4;"/>
  <line x1="505" y1="160" x2="525" y2="160" style="stroke:#48cae4;stroke-width:1.5;"/>

  <!-- ========== RIGHT: Visualization & Classification ========== -->
  <rect x="535" y="38" width="250" height="215" rx="6" style="fill:url(#boxGrad);stroke:#1a3a5c;stroke-width:1;"/>
  <text x="660" y="56" style="font-family:Arial,sans-serif;font-size:10px;font-weight:bold;fill:#48cae4;text-anchor:middle;">Visualization &amp; Classification</text>

  <!-- Scatter plot area -->
  <rect x="548" y="64" width="130" height="110" rx="3" style="fill:#0a1628;stroke:#1a3a5c;stroke-width:0.8;"/>
  <!-- Axes -->
  <line x1="560" y1="164" x2="670" y2="164" style="stroke:#3a5a7a;stroke-width:0.5;"/>
  <line x1="560" y1="70" x2="560" y2="164" style="stroke:#3a5a7a;stroke-width:0.5;"/>
  <text x="615" y="174" style="font-family:Arial,sans-serif;font-size:6px;fill:#7a9ab8;text-anchor:middle;">t-SNE dim 1</text>
  <text x="553" y="120" style="font-family:Arial,sans-serif;font-size:6px;fill:#7a9ab8;text-anchor:middle;writing-mode:tb;">t-SNE dim 2</text>

  <!-- Cluster 1 (blue) - grain size -->
  <circle cx="585" cy="95" r="3" style="fill:#00b4d8;opacity:0.8;"/>
  <circle cx="590" cy="100" r="3" style="fill:#00b4d8;opacity:0.8;"/>
  <circle cx="582" cy="102" r="3" style="fill:#00b4d8;opacity:0.8;"/>
  <circle cx="588" cy="90" r="3" style="fill:#00b4d8;opacity:0.8;"/>
  <circle cx="595" cy="93" r="3" style="fill:#00b4d8;opacity:0.8;"/>
  <circle cx="580" cy="88" r="3" style="fill:#00b4d8;opacity:0.8;"/>
  <circle cx="592" cy="108" r="3" style="fill:#00b4d8;opacity:0.7;"/>

  <!-- Cluster 2 (orange) -->
  <circle cx="630" cy="130" r="3" style="fill:#e07a2f;opacity:0.8;"/>
  <circle cx="638" cy="135" r="3" style="fill:#e07a2f;opacity:0.8;"/>
  <circle cx="625" cy="138" r="3" style="fill:#e07a2f;opacity:0.8;"/>
  <circle cx="635" cy="125" r="3" style="fill:#e07a2f;opacity:0.8;"/>
  <circle cx="640" cy="140" r="3" style="fill:#e07a2f;opacity:0.8;"/>
  <circle cx="622" cy="128" r="3" style="fill:#e07a2f;opacity:0.8;"/>
  <circle cx="632" cy="142" r="3" style="fill:#e07a2f;opacity:0.7;"/>

  <!-- Cluster 3 (green) -->
  <circle cx="645" cy="85" r="3" style="fill:#2ecc71;opacity:0.8;"/>
  <circle cx="650" cy="92" r="3" style="fill:#2ecc71;opacity:0.8;"/>
  <circle cx="655" cy="80" r="3" style="fill:#2ecc71;opacity:0.8;"/>
  <circle cx="640" cy="78" r="3" style="fill:#2ecc71;opacity:0.8;"/>
  <circle cx="648" cy="88" r="3" style="fill:#2ecc71;opacity:0.8;"/>
  <circle cx="658" cy="90" r="3" style="fill:#2ecc71;opacity:0.8;"/>

  <!-- Cluster 4 (purple) - mixed -->
  <circle cx="600" cy="145" r="3" style="fill:#9b59b6;opacity:0.8;"/>
  <circle cx="608" cy="150" r="3" style="fill:#9b59b6;opacity:0.8;"/>
  <circle cx="595" cy="152" r="3" style="fill:#9b59b6;opacity:0.8;"/>
  <circle cx="605" cy="155" r="3" style="fill:#9b59b6;opacity:0.8;"/>
  <circle cx="612" cy="148" r="3" style="fill:#9b59b6;opacity:0.7;"/>

  <!-- Scatter plot label -->
  <text x="613" y="184" style="font-family:Arial,sans-serif;font-size:8px;fill:#90a4ae;text-anchor:middle;">t-SNE 2D Projection</text>

  <!-- Accuracy results box -->
  <rect x="690" y="65" width="82" height="110" rx="4" style="fill:#0a1628;stroke:#1a3a5c;stroke-width:0.8;"/>
  <text x="731" y="80" style="font-family:Arial,sans-serif;font-size:8px;font-weight:bold;fill:#48cae4;text-anchor:middle;">Accuracy</text>

  <!-- Grain Size bar -->
  <text x="698" y="98" style="font-family:Arial,sans-serif;font-size:7px;fill:#90a4ae;text-anchor:start;">Grain Size</text>
  <rect x="698" y="102" width="65" height="8" rx="2" style="fill:#1a3a5c;"/>
  <rect x="698" y="102" width="62" height="8" rx="2" style="fill:#2ecc71;"/>
  <text x="764" y="109" style="font-family:Arial,sans-serif;font-size:7px;font-weight:bold;fill:#2ecc71;text-anchor:end;">95%</text>

  <!-- Plant bar -->
  <text x="698" y="125" style="font-family:Arial,sans-serif;font-size:7px;fill:#90a4ae;text-anchor:start;">Plant</text>
  <rect x="698" y="129" width="65" height="8" rx="2" style="fill:#1a3a5c;"/>
  <rect x="698" y="129" width="42" height="8" rx="2" style="fill:#e07a2f;"/>
  <text x="764" y="136" style="font-family:Arial,sans-serif;font-size:7px;font-weight:bold;fill:#e07a2f;text-anchor:end;">65%</text>

  <!-- Month bar -->
  <text x="698" y="152" style="font-family:Arial,sans-serif;font-size:7px;fill:#90a4ae;text-anchor:start;">Month</text>
  <rect x="698" y="156" width="65" height="8" rx="2" style="fill:#1a3a5c;"/>
  <rect x="698" y="156" width="21" height="8" rx="2" style="fill:#e74c3c;"/>
  <text x="764" y="163" style="font-family:Arial,sans-serif;font-size:7px;font-weight:bold;fill:#e74c3c;text-anchor:end;">33%</text>

  <!-- Legend -->
  <rect x="548" y="192" width="230" height="50" rx="4" style="fill:#0a1628;stroke:#1a3a5c;stroke-width:0.8;"/>
  <text x="560" y="206" style="font-family:Arial,sans-serif;font-size:7px;fill:#90a4ae;text-anchor:start;">Legend:</text>
  <circle cx="565" cy="216" r="3" style="fill:#00b4d8;"/>
  <text x="573" y="219" style="font-family:Arial,sans-serif;font-size:7px;fill:#90a4ae;">Fine grain</text>
  <circle cx="630" cy="216" r="3" style="fill:#e07a2f;"/>
  <text x="638" y="219" style="font-family:Arial,sans-serif;font-size:7px;fill:#90a4ae;">Coarse grain</text>
  <circle cx="710" cy="216" r="3" style="fill:#2ecc71;"/>
  <text x="718" y="219" style="font-family:Arial,sans-serif;font-size:7px;fill:#90a4ae;">Plant A</text>
  <circle cx="565" cy="230" r="3" style="fill:#9b59b6;"/>
  <text x="573" y="233" style="font-family:Arial,sans-serif;font-size:7px;fill:#90a4ae;">Plant B</text>

  <!-- ========== BOTTOM: Dataset info ========== -->
  <rect x="15" y="265" width="770" height="40" rx="6" style="fill:#0a1628;stroke:#1a3a5c;stroke-width:1;"/>

  <!-- Flow summary -->
  <text x="400" y="281" style="font-family:Arial,sans-serif;font-size:9px;fill:#48cae4;text-anchor:middle;font-weight:bold;">Dataset: 72 samples &#x00D7; 3 plants &#x00D7; 2 grain sizes &#x00D7; 12 months</text>
  <text x="400" y="296" style="font-family:Arial,sans-serif;font-size:8px;fill:#7a9ab8;text-anchor:middle;">Unsupervised clustering of hyperspectral imagery for mineral process characterization</text>

  <!-- Bottom flow arrows with labels -->
  <rect x="15" y="310" width="770" height="28" rx="6" style="fill:url(#boxGrad);stroke:#1a3a5c;stroke-width:0.8;"/>

  <!-- Pipeline flow -->
  <text x="70" y="328" style="font-family:Arial,sans-serif;font-size:8px;fill:#48cae4;text-anchor:middle;">HSI Capture</text>
  <polygon points="125,325 135,320 135,330" style="fill:#3a5a7a;"/>
  <text x="190" y="328" style="font-family:Arial,sans-serif;font-size:8px;fill:#48cae4;text-anchor:middle;">Calibration</text>
  <polygon points="240,325 250,320 250,330" style="fill:#3a5a7a;"/>
  <text x="310" y="328" style="font-family:Arial,sans-serif;font-size:8px;fill:#48cae4;text-anchor:middle;">Normalization</text>
  <polygon points="370,325 380,320 380,330" style="fill:#3a5a7a;"/>
  <text x="440" y="328" style="font-family:Arial,sans-serif;font-size:8px;fill:#e07a2f;text-anchor:middle;">Conv-AE</text>
  <polygon points="480,325 490,320 490,330" style="fill:#3a5a7a;"/>
  <text x="540" y="328" style="font-family:Arial,sans-serif;font-size:8px;fill:#e07a2f;text-anchor:middle;">t-SNE</text>
  <polygon points="575,325 585,320 585,330" style="fill:#3a5a7a;"/>
  <text x="640" y="328" style="font-family:Arial,sans-serif;font-size:8px;fill:#2ecc71;text-anchor:middle;">Clustering</text>
  <polygon points="685,325 695,320 695,330" style="fill:#3a5a7a;"/>
  <text x="740" y="328" style="font-family:Arial,sans-serif;font-size:8px;fill:#2ecc71;text-anchor:middle;">Evaluation</text>

  <!-- Bottom credits -->
  <text x="400" y="355" style="font-family:Arial,sans-serif;font-size:7px;fill:#3a5a7a;text-anchor:middle;">VNIR: Visible&#x2013;Near Infrared | SWIR: Short-Wave Infrared | Conv-AE: Convolutional Autoencoder | t-SNE: t-distributed Stochastic Neighbor Embedding</text>

</svg>